<svg xmlns="http://www.w3.org/2000/svg" xmlns:xlink="http://www.w3.org/1999/xlink" contentStyleType="text/css" data-diagram-type="CLASS" height="891px" preserveAspectRatio="none" style="width:2261px;height:891px;background:#FFFFFF;" version="1.1" viewBox="0 0 2261 891" width="2261px" zoomAndPan="magnify"><defs/><g><!--class Users--><g id="elem_Users"><rect codeLine="1" fill="#F1F1F1" height="194.6719" id="Users" rx="2.5" ry="2.5" style="stroke:#181818;stroke-width:0.5;" width="681.5391" x="724" y="7"/><ellipse cx="1040.9175" cy="23" fill="#ADD1B2" rx="11" ry="11" style="stroke:#181818;stroke-width:1;"/><path d="M1043.8862,28.6406 Q1043.3081,28.9375 1042.6675,29.0781 Q1042.0269,29.2344 1041.3237,29.2344 Q1038.8237,29.2344 1037.4956,27.5938 Q1036.1831,25.9375 1036.1831,22.8125 Q1036.1831,19.6875 1037.4956,18.0313 Q1038.8237,16.375 1041.3237,16.375 Q1042.0269,16.375 1042.6675,16.5313 Q1043.3237,16.6875 1043.8862,16.9844 L1043.8862,19.7031 Q1043.2612,19.125 1042.6675,18.8594 Q1042.0737,18.5781 1041.4487,18.5781 Q1040.105,18.5781 1039.4175,19.6563 Q1038.73,20.7188 1038.73,22.8125 Q1038.73,24.9063 1039.4175,25.9844 Q1040.105,27.0469 1041.4487,27.0469 Q1042.0737,27.0469 1042.6675,26.7813 Q1043.2612,26.5 1043.8862,25.9219 L1043.8862,28.6406 Z " fill="#000000"/><text fill="#000000" font-family="sans-serif" font-size="14" lengthAdjust="spacing" textLength="39.2041" x="1061.4175" y="27.8467">Users</text><line style="stroke:#181818;stroke-width:0.5;" x1="725" x2="1404.5391" y1="39" y2="39"/><ellipse cx="735" cy="52.6484" fill="#FFFFFF" fill-opacity="0.00000" rx="3" ry="3" style="stroke:#038048;stroke-width:1;"/><text fill="#000000" font-family="sans-serif" font-size="14" lengthAdjust="spacing" textLength="253.8252" x="744" y="55.9951">user_id: INT [PK, AUTO_INCREMENT]</text><ellipse cx="735" cy="68.9453" fill="#FFFFFF" fill-opacity="0.00000" rx="3" ry="3" style="stroke:#038048;stroke-width:1;"/><text fill="#000000" font-family="sans-serif" font-size="14" lengthAdjust="spacing" textLength="151.71" x="744" y="72.292">address: TEXT [NULL]</text><ellipse cx="735" cy="85.2422" fill="#FFFFFF" fill-opacity="0.00000" rx="3" ry="3" style="stroke:#038048;stroke-width:1;"/><text fill="#000000" font-family="sans-serif" font-size="14" lengthAdjust="spacing" textLength="404.1816" x="744" y="88.5889">created_at: TIMESTAMP [DEFAULT CURRENT_TIMESTAMP]</text><ellipse cx="735" cy="101.5391" fill="#FFFFFF" fill-opacity="0.00000" rx="3" ry="3" style="stroke:#038048;stroke-width:1;"/><text fill="#000000" font-family="sans-serif" font-size="14" lengthAdjust="spacing" textLength="655.5391" x="744" y="104.8857">updated_at: TIMESTAMP [DEFAULT CURRENT_TIMESTAMP ON UPDATE CURRENT_TIMESTAMP]</text><line style="stroke:#181818;stroke-width:0.5;" x1="725" x2="1404.5391" y1="112.1875" y2="112.1875"/><ellipse cx="735" cy="125.8359" fill="#84BE84" rx="3" ry="3" style="stroke:#038048;stroke-width:1;"/><text fill="#000000" font-family="sans-serif" font-size="14" lengthAdjust="spacing" textLength="241.1924" x="744" y="129.1826">name: VARCHAR(255) [NOT NULL]</text><ellipse cx="735" cy="142.1328" fill="#84BE84" rx="3" ry="3" style="stroke:#038048;stroke-width:1;"/><text fill="#000000" font-family="sans-serif" font-size="14" lengthAdjust="spacing" textLength="303.96" x="744" y="145.4795">email: VARCHAR(255) [UNIQUE, NOT NULL]</text><ellipse cx="735" cy="158.4297" fill="#84BE84" rx="3" ry="3" style="stroke:#038048;stroke-width:1;"/><text fill="#000000" font-family="sans-serif" font-size="14" lengthAdjust="spacing" textLength="300.2549" x="744" y="161.7764">phone: VARCHAR(15) [UNIQUE, NOT NULL]</text><ellipse cx="735" cy="174.7266" fill="#84BE84" rx="3" ry="3" style="stroke:#038048;stroke-width:1;"/><text fill="#000000" font-family="sans-serif" font-size="14" lengthAdjust="spacing" textLength="364.6152" x="744" y="178.0732">user_type: ENUM('client', 'professional') [NOT NULL]</text><ellipse cx="735" cy="191.0234" fill="#84BE84" rx="3" ry="3" style="stroke:#038048;stroke-width:1;"/><text fill="#000000" font-family="sans-serif" font-size="14" lengthAdjust="spacing" textLength="268.2012" x="744" y="194.3701">password: VARCHAR(255) [NOT NULL]</text></g><!--class BeautyProfiles--><g id="elem_BeautyProfiles"><rect codeLine="13" fill="#F1F1F1" height="162.0781" id="BeautyProfiles" rx="2.5" ry="2.5" style="stroke:#181818;stroke-width:0.5;" width="681.5391" x="7" y="269.82"/><ellipse cx="293.1079" cy="285.82" fill="#ADD1B2" rx="11" ry="11" style="stroke:#181818;stroke-width:1;"/><path d="M296.0767,291.4606 Q295.4985,291.7575 294.8579,291.8981 Q294.2173,292.0544 293.5142,292.0544 Q291.0142,292.0544 289.686,290.4138 Q288.3735,288.7575 288.3735,285.6325 Q288.3735,282.5075 289.686,280.8513 Q291.0142,279.195 293.5142,279.195 Q294.2173,279.195 294.8579,279.3513 Q295.5142,279.5075 296.0767,279.8044 L296.0767,282.5231 Q295.4517,281.945 294.8579,281.6794 Q294.2642,281.3981 293.6392,281.3981 Q292.2954,281.3981 291.6079,282.4763 Q290.9204,283.5388 290.9204,285.6325 Q290.9204,287.7263 291.6079,288.8044 Q292.2954,289.8669 293.6392,289.8669 Q294.2642,289.8669 294.8579,289.6013 Q295.4517,289.32 296.0767,288.7419 L296.0767,291.4606 Z " fill="#000000"/><text fill="#000000" font-family="sans-serif" font-size="14" lengthAdjust="spacing" textLength="100.8232" x="313.6079" y="290.6667">BeautyProfiles</text><line style="stroke:#181818;stroke-width:0.5;" x1="8" x2="687.5391" y1="301.82" y2="301.82"/><ellipse cx="18" cy="315.4684" fill="#FFFFFF" fill-opacity="0.00000" rx="3" ry="3" style="stroke:#038048;stroke-width:1;"/><text fill="#000000" font-family="sans-serif" font-size="14" lengthAdjust="spacing" textLength="267.8184" x="27" y="318.8151">profile_id: INT [PK, AUTO_INCREMENT]</text><ellipse cx="18" cy="331.7653" fill="#FFFFFF" fill-opacity="0.00000" rx="3" ry="3" style="stroke:#038048;stroke-width:1;"/><text fill="#000000" font-family="sans-serif" font-size="14" lengthAdjust="spacing" textLength="180.0449" x="27" y="335.112">preferences: TEXT [NULL]</text><ellipse cx="18" cy="348.0622" fill="#FFFFFF" fill-opacity="0.00000" rx="3" ry="3" style="stroke:#038048;stroke-width:1;"/><text fill="#000000" font-family="sans-serif" font-size="14" lengthAdjust="spacing" textLength="404.1816" x="27" y="351.4089">created_at: TIMESTAMP [DEFAULT CURRENT_TIMESTAMP]</text><ellipse cx="18" cy="364.3591" fill="#FFFFFF" fill-opacity="0.00000" rx="3" ry="3" style="stroke:#038048;stroke-width:1;"/><text fill="#000000" font-family="sans-serif" font-size="14" lengthAdjust="spacing" textLength="655.5391" x="27" y="367.7057">updated_at: TIMESTAMP [DEFAULT CURRENT_TIMESTAMP ON UPDATE CURRENT_TIMESTAMP]</text><line style="stroke:#181818;stroke-width:0.5;" x1="8" x2="687.5391" y1="375.0075" y2="375.0075"/><ellipse cx="18" cy="388.6559" fill="#84BE84" rx="3" ry="3" style="stroke:#038048;stroke-width:1;"/><text fill="#000000" font-family="sans-serif" font-size="14" lengthAdjust="spacing" textLength="169.8184" x="27" y="392.0026">user_id: INT [FK] (Users)</text><ellipse cx="18" cy="404.9528" fill="#84BE84" rx="3" ry="3" style="stroke:#038048;stroke-width:1;"/><text fill="#000000" font-family="sans-serif" font-size="14" lengthAdjust="spacing" textLength="224.5264" x="27" y="408.2995">skin_type: VARCHAR(50) [NULL]</text><ellipse cx="18" cy="421.2497" fill="#84BE84" rx="3" ry="3" style="stroke:#038048;stroke-width:1;"/><text fill="#000000" font-family="sans-serif" font-size="14" lengthAdjust="spacing" textLength="223.46" x="27" y="424.5964">hair_type: VARCHAR(50) [NULL]</text></g><!--class Categories--><g id="elem_Categories"><rect codeLine="23" fill="#F1F1F1" height="113.1875" id="Categories" rx="2.5" ry="2.5" style="stroke:#181818;stroke-width:0.5;" width="681.5391" x="1441" y="294.26"/><ellipse cx="1739.7886" cy="310.26" fill="#ADD1B2" rx="11" ry="11" style="stroke:#181818;stroke-width:1;"/><path d="M1742.7573,315.9006 Q1742.1792,316.1975 1741.5386,316.3381 Q1740.8979,316.4944 1740.1948,316.4944 Q1737.6948,316.4944 1736.3667,314.8538 Q1735.0542,313.1975 1735.0542,310.0725 Q1735.0542,306.9475 1736.3667,305.2913 Q1737.6948,303.635 1740.1948,303.635 Q1740.8979,303.635 1741.5386,303.7913 Q1742.1948,303.9475 1742.7573,304.2444 L1742.7573,306.9631 Q1742.1323,306.385 1741.5386,306.1194 Q1740.9448,305.8381 1740.3198,305.8381 Q1738.9761,305.8381 1738.2886,306.9163 Q1737.6011,307.9788 1737.6011,310.0725 Q1737.6011,312.1663 1738.2886,313.2444 Q1738.9761,314.3069 1740.3198,314.3069 Q1740.9448,314.3069 1741.5386,314.0413 Q1742.1323,313.76 1742.7573,313.1819 L1742.7573,315.9006 Z " fill="#000000"/><text fill="#000000" font-family="sans-serif" font-size="14" lengthAdjust="spacing" textLength="75.4619" x="1760.2886" y="315.1067">Categories</text><line style="stroke:#181818;stroke-width:0.5;" x1="1442" x2="2121.5391" y1="326.26" y2="326.26"/><ellipse cx="1452" cy="339.9084" fill="#FFFFFF" fill-opacity="0.00000" rx="3" ry="3" style="stroke:#038048;stroke-width:1;"/><text fill="#000000" font-family="sans-serif" font-size="14" lengthAdjust="spacing" textLength="285.1611" x="1461" y="343.2551">category_id: INT [PK, AUTO_INCREMENT]</text><ellipse cx="1452" cy="356.2053" fill="#FFFFFF" fill-opacity="0.00000" rx="3" ry="3" style="stroke:#038048;stroke-width:1;"/><text fill="#000000" font-family="sans-serif" font-size="14" lengthAdjust="spacing" textLength="404.1816" x="1461" y="359.552">created_at: TIMESTAMP [DEFAULT CURRENT_TIMESTAMP]</text><ellipse cx="1452" cy="372.5022" fill="#FFFFFF" fill-opacity="0.00000" rx="3" ry="3" style="stroke:#038048;stroke-width:1;"/><text fill="#000000" font-family="sans-serif" font-size="14" lengthAdjust="spacing" textLength="655.5391" x="1461" y="375.8489">updated_at: TIMESTAMP [DEFAULT CURRENT_TIMESTAMP ON UPDATE CURRENT_TIMESTAMP]</text><line style="stroke:#181818;stroke-width:0.5;" x1="1442" x2="2121.5391" y1="383.1506" y2="383.1506"/><ellipse cx="1452" cy="396.7991" fill="#84BE84" rx="3" ry="3" style="stroke:#038048;stroke-width:1;"/><text fill="#000000" font-family="sans-serif" font-size="14" lengthAdjust="spacing" textLength="373.9258" x="1461" y="400.1457">category_name: VARCHAR(255) [UNIQUE, NOT NULL]</text></g><!--class Services--><g id="elem_Services"><rect codeLine="30" fill="#F1F1F1" height="162.0781" id="Services" rx="2.5" ry="2.5" style="stroke:#181818;stroke-width:0.5;" width="430.1816" x="1566.68" y="500.04"/><ellipse cx="1748.0032" cy="516.04" fill="#ADD1B2" rx="11" ry="11" style="stroke:#181818;stroke-width:1;"/><path d="M1750.972,521.6806 Q1750.3939,521.9775 1749.7532,522.1181 Q1749.1126,522.2744 1748.4095,522.2744 Q1745.9095,522.2744 1744.5814,520.6338 Q1743.2689,518.9775 1743.2689,515.8525 Q1743.2689,512.7275 1744.5814,511.0712 Q1745.9095,509.415 1748.4095,509.415 Q1749.1126,509.415 1749.7532,509.5712 Q1750.4095,509.7275 1750.972,510.0244 L1750.972,512.7431 Q1750.347,512.165 1749.7532,511.8994 Q1749.1595,511.6181 1748.5345,511.6181 Q1747.1907,511.6181 1746.5032,512.6963 Q1745.8157,513.7588 1745.8157,515.8525 Q1745.8157,517.9463 1746.5032,519.0244 Q1747.1907,520.0869 1748.5345,520.0869 Q1749.1595,520.0869 1749.7532,519.8213 Q1750.347,519.54 1750.972,518.9619 L1750.972,521.6806 Z " fill="#000000"/><text fill="#000000" font-family="sans-serif" font-size="14" lengthAdjust="spacing" textLength="59.0352" x="1768.5032" y="520.8867">Services</text><line style="stroke:#181818;stroke-width:0.5;" x1="1567.68" x2="1995.8616" y1="532.04" y2="532.04"/><ellipse cx="1577.68" cy="545.6884" fill="#FFFFFF" fill-opacity="0.00000" rx="3" ry="3" style="stroke:#038048;stroke-width:1;"/><text fill="#000000" font-family="sans-serif" font-size="14" lengthAdjust="spacing" textLength="273.4375" x="1586.68" y="549.0351">service_id: INT [PK, AUTO_INCREMENT]</text><ellipse cx="1577.68" cy="561.9853" fill="#FFFFFF" fill-opacity="0.00000" rx="3" ry="3" style="stroke:#038048;stroke-width:1;"/><text fill="#000000" font-family="sans-serif" font-size="14" lengthAdjust="spacing" textLength="174.2412" x="1586.68" y="565.332">description: TEXT [NULL]</text><ellipse cx="1577.68" cy="578.2822" fill="#FFFFFF" fill-opacity="0.00000" rx="3" ry="3" style="stroke:#038048;stroke-width:1;"/><text fill="#000000" font-family="sans-serif" font-size="14" lengthAdjust="spacing" textLength="177.4199" x="1586.68" y="581.6289">duration: INT [NOT NULL]</text><ellipse cx="1577.68" cy="594.5791" fill="#FFFFFF" fill-opacity="0.00000" rx="3" ry="3" style="stroke:#038048;stroke-width:1;"/><text fill="#000000" font-family="sans-serif" font-size="14" lengthAdjust="spacing" textLength="404.1816" x="1586.68" y="597.9257">created_at: TIMESTAMP [DEFAULT CURRENT_TIMESTAMP]</text><line style="stroke:#181818;stroke-width:0.5;" x1="1567.68" x2="1995.8616" y1="605.2275" y2="605.2275"/><ellipse cx="1577.68" cy="618.8759" fill="#84BE84" rx="3" ry="3" style="stroke:#038048;stroke-width:1;"/><text fill="#000000" font-family="sans-serif" font-size="14" lengthAdjust="spacing" textLength="298.3408" x="1586.68" y="622.2226">service_name: VARCHAR(255) [NOT NULL]</text><ellipse cx="1577.68" cy="635.1728" fill="#84BE84" rx="3" ry="3" style="stroke:#038048;stroke-width:1;"/><text fill="#000000" font-family="sans-serif" font-size="14" lengthAdjust="spacing" textLength="235.2793" x="1586.68" y="638.5195">price: DECIMAL(10,2) [NOT NULL]</text><ellipse cx="1577.68" cy="651.4697" fill="#84BE84" rx="3" ry="3" style="stroke:#038048;stroke-width:1;"/><text fill="#000000" font-family="sans-serif" font-size="14" lengthAdjust="spacing" textLength="237.4121" x="1586.68" y="654.8164">category_id: INT [FK] (Categories)</text></g><!--class Bookings--><g id="elem_Bookings"><rect codeLine="40" fill="#F1F1F1" height="178.375" id="Bookings" rx="2.5" ry="2.5" style="stroke:#181818;stroke-width:0.5;" width="681.5391" x="724" y="261.67"/><ellipse cx="1028.6265" cy="277.67" fill="#ADD1B2" rx="11" ry="11" style="stroke:#181818;stroke-width:1;"/><path d="M1031.5952,283.3106 Q1031.0171,283.6075 1030.3765,283.7481 Q1029.7358,283.9044 1029.0327,283.9044 Q1026.5327,283.9044 1025.2046,282.2638 Q1023.8921,280.6075 1023.8921,277.4825 Q1023.8921,274.3575 1025.2046,272.7013 Q1026.5327,271.045 1029.0327,271.045 Q1029.7358,271.045 1030.3765,271.2013 Q1031.0327,271.3575 1031.5952,271.6544 L1031.5952,274.3731 Q1030.9702,273.795 1030.3765,273.5294 Q1029.7827,273.2481 1029.1577,273.2481 Q1027.814,273.2481 1027.1265,274.3263 Q1026.439,275.3888 1026.439,277.4825 Q1026.439,279.5763 1027.1265,280.6544 Q1027.814,281.7169 1029.1577,281.7169 Q1029.7827,281.7169 1030.3765,281.4513 Q1030.9702,281.17 1031.5952,280.5919 L1031.5952,283.3106 Z " fill="#000000"/><text fill="#000000" font-family="sans-serif" font-size="14" lengthAdjust="spacing" textLength="63.7861" x="1049.1265" y="282.5167">Bookings</text><line style="stroke:#181818;stroke-width:0.5;" x1="725" x2="1404.5391" y1="293.67" y2="293.67"/><ellipse cx="735" cy="307.3184" fill="#FFFFFF" fill-opacity="0.00000" rx="3" ry="3" style="stroke:#038048;stroke-width:1;"/><text fill="#000000" font-family="sans-serif" font-size="14" lengthAdjust="spacing" textLength="279.0635" x="744" y="310.6651">booking_id: INT [PK, AUTO_INCREMENT]</text><ellipse cx="735" cy="323.6153" fill="#FFFFFF" fill-opacity="0.00000" rx="3" ry="3" style="stroke:#038048;stroke-width:1;"/><text fill="#000000" font-family="sans-serif" font-size="14" lengthAdjust="spacing" textLength="227.4521" x="744" y="326.962">booking_date: DATE [NOT NULL]</text><ellipse cx="735" cy="339.9122" fill="#FFFFFF" fill-opacity="0.00000" rx="3" ry="3" style="stroke:#038048;stroke-width:1;"/><text fill="#000000" font-family="sans-serif" font-size="14" lengthAdjust="spacing" textLength="200.1973" x="744" y="343.2589">start_time: TIME [NOT NULL]</text><ellipse cx="735" cy="356.2091" fill="#FFFFFF" fill-opacity="0.00000" rx="3" ry="3" style="stroke:#038048;stroke-width:1;"/><text fill="#000000" font-family="sans-serif" font-size="14" lengthAdjust="spacing" textLength="404.1816" x="744" y="359.5557">created_at: TIMESTAMP [DEFAULT CURRENT_TIMESTAMP]</text><ellipse cx="735" cy="372.5059" fill="#FFFFFF" fill-opacity="0.00000" rx="3" ry="3" style="stroke:#038048;stroke-width:1;"/><text fill="#000000" font-family="sans-serif" font-size="14" lengthAdjust="spacing" textLength="655.5391" x="744" y="375.8526">updated_at: TIMESTAMP [DEFAULT CURRENT_TIMESTAMP ON UPDATE CURRENT_TIMESTAMP]</text><line style="stroke:#181818;stroke-width:0.5;" x1="725" x2="1404.5391" y1="383.1544" y2="383.1544"/><ellipse cx="735" cy="396.8028" fill="#84BE84" rx="3" ry="3" style="stroke:#038048;stroke-width:1;"/><text fill="#000000" font-family="sans-serif" font-size="14" lengthAdjust="spacing" textLength="169.8184" x="744" y="400.1495">user_id: INT [FK] (Users)</text><ellipse cx="735" cy="413.0997" fill="#84BE84" rx="3" ry="3" style="stroke:#038048;stroke-width:1;"/><text fill="#000000" font-family="sans-serif" font-size="14" lengthAdjust="spacing" textLength="209.2617" x="744" y="416.4464">service_id: INT [FK] (Services)</text><ellipse cx="735" cy="429.3966" fill="#84BE84" rx="3" ry="3" style="stroke:#038048;stroke-width:1;"/><text fill="#000000" font-family="sans-serif" font-size="14" lengthAdjust="spacing" textLength="491.8594" x="744" y="432.7432">status: ENUM('pending', 'completed', 'cancelled') [DEFAULT 'pending']</text></g><!--class Payments--><g id="elem_Payments"><rect codeLine="51" fill="#F1F1F1" height="145.7813" id="Payments" rx="2.5" ry="2.5" style="stroke:#181818;stroke-width:0.5;" width="474.7656" x="827.39" y="508.19"/><ellipse cx="1025.9159" cy="524.19" fill="#ADD1B2" rx="11" ry="11" style="stroke:#181818;stroke-width:1;"/><path d="M1028.8846,529.8306 Q1028.3065,530.1275 1027.6659,530.2681 Q1027.0253,530.4244 1026.3221,530.4244 Q1023.8221,530.4244 1022.494,528.7838 Q1021.1815,527.1275 1021.1815,524.0025 Q1021.1815,520.8775 1022.494,519.2213 Q1023.8221,517.565 1026.3221,517.565 Q1027.0253,517.565 1027.6659,517.7213 Q1028.3221,517.8775 1028.8846,518.1744 L1028.8846,520.8931 Q1028.2596,520.315 1027.6659,520.0494 Q1027.0721,519.7681 1026.4471,519.7681 Q1025.1034,519.7681 1024.4159,520.8463 Q1023.7284,521.9088 1023.7284,524.0025 Q1023.7284,526.0963 1024.4159,527.1744 Q1025.1034,528.2369 1026.4471,528.2369 Q1027.0721,528.2369 1027.6659,527.9713 Q1028.2596,527.69 1028.8846,527.1119 L1028.8846,529.8306 Z " fill="#000000"/><text fill="#000000" font-family="sans-serif" font-size="14" lengthAdjust="spacing" textLength="69.2139" x="1046.4159" y="529.0367">Payments</text><line style="stroke:#181818;stroke-width:0.5;" x1="828.39" x2="1301.1556" y1="540.19" y2="540.19"/><ellipse cx="838.39" cy="553.8384" fill="#FFFFFF" fill-opacity="0.00000" rx="3" ry="3" style="stroke:#038048;stroke-width:1;"/><text fill="#000000" font-family="sans-serif" font-size="14" lengthAdjust="spacing" textLength="285.6533" x="847.39" y="557.1851">payment_id: INT [PK, AUTO_INCREMENT]</text><ellipse cx="838.39" cy="570.1353" fill="#FFFFFF" fill-opacity="0.00000" rx="3" ry="3" style="stroke:#038048;stroke-width:1;"/><text fill="#000000" font-family="sans-serif" font-size="14" lengthAdjust="spacing" textLength="430.4111" x="847.39" y="573.482">payment_date: TIMESTAMP [DEFAULT CURRENT_TIMESTAMP]</text><ellipse cx="838.39" cy="586.4322" fill="#FFFFFF" fill-opacity="0.00000" rx="3" ry="3" style="stroke:#038048;stroke-width:1;"/><text fill="#000000" font-family="sans-serif" font-size="14" lengthAdjust="spacing" textLength="404.1816" x="847.39" y="589.7789">created_at: TIMESTAMP [DEFAULT CURRENT_TIMESTAMP]</text><line style="stroke:#181818;stroke-width:0.5;" x1="828.39" x2="1301.1556" y1="597.0806" y2="597.0806"/><ellipse cx="838.39" cy="610.7291" fill="#84BE84" rx="3" ry="3" style="stroke:#038048;stroke-width:1;"/><text fill="#000000" font-family="sans-serif" font-size="14" lengthAdjust="spacing" textLength="219.6387" x="847.39" y="614.0757">booking_id: INT [FK] (Bookings)</text><ellipse cx="838.39" cy="627.0259" fill="#84BE84" rx="3" ry="3" style="stroke:#038048;stroke-width:1;"/><text fill="#000000" font-family="sans-serif" font-size="14" lengthAdjust="spacing" textLength="254.4541" x="847.39" y="630.3726">amount: DECIMAL(10,2) [NOT NULL]</text><ellipse cx="838.39" cy="643.3228" fill="#84BE84" rx="3" ry="3" style="stroke:#038048;stroke-width:1;"/><text fill="#000000" font-family="sans-serif" font-size="14" lengthAdjust="spacing" textLength="448.7656" x="847.39" y="646.6695">status: ENUM('success', 'failed', 'refunded') [DEFAULT 'success']</text></g><!--class Feedback--><g id="elem_Feedback"><rect codeLine="60" fill="#F1F1F1" height="162.0781" id="Feedback" rx="2.5" ry="2.5" style="stroke:#181818;stroke-width:0.5;" width="458.3594" x="1749.59" y="722.12"/><ellipse cx="1940.8014" cy="738.12" fill="#ADD1B2" rx="11" ry="11" style="stroke:#181818;stroke-width:1;"/><path d="M1943.7702,743.7606 Q1943.1921,744.0575 1942.5514,744.1981 Q1941.9108,744.3544 1941.2077,744.3544 Q1938.7077,744.3544 1937.3796,742.7138 Q1936.0671,741.0575 1936.0671,737.9325 Q1936.0671,734.8075 1937.3796,733.1513 Q1938.7077,731.495 1941.2077,731.495 Q1941.9108,731.495 1942.5514,731.6513 Q1943.2077,731.8075 1943.7702,732.1044 L1943.7702,734.8231 Q1943.1452,734.245 1942.5514,733.9794 Q1941.9577,733.6981 1941.3327,733.6981 Q1939.9889,733.6981 1939.3014,734.7763 Q1938.6139,735.8388 1938.6139,737.9325 Q1938.6139,740.0263 1939.3014,741.1044 Q1939.9889,742.1669 1941.3327,742.1669 Q1941.9577,742.1669 1942.5514,741.9013 Q1943.1452,741.62 1943.7702,741.0419 L1943.7702,743.7606 Z " fill="#000000"/><text fill="#000000" font-family="sans-serif" font-size="14" lengthAdjust="spacing" textLength="67.4365" x="1961.3014" y="742.9667">Feedback</text><line style="stroke:#181818;stroke-width:0.5;" x1="1750.59" x2="2206.9494" y1="754.12" y2="754.12"/><ellipse cx="1760.59" cy="767.7684" fill="#FFFFFF" fill-opacity="0.00000" rx="3" ry="3" style="stroke:#038048;stroke-width:1;"/><text fill="#000000" font-family="sans-serif" font-size="14" lengthAdjust="spacing" textLength="287.6016" x="1769.59" y="771.1151">feedback_id: INT [PK, AUTO_INCREMENT]</text><ellipse cx="1760.59" cy="784.0653" fill="#FFFFFF" fill-opacity="0.00000" rx="3" ry="3" style="stroke:#038048;stroke-width:1;"/><text fill="#000000" font-family="sans-serif" font-size="14" lengthAdjust="spacing" textLength="170.208" x="1769.59" y="787.412">comments: TEXT [NULL]</text><ellipse cx="1760.59" cy="800.3622" fill="#FFFFFF" fill-opacity="0.00000" rx="3" ry="3" style="stroke:#038048;stroke-width:1;"/><text fill="#000000" font-family="sans-serif" font-size="14" lengthAdjust="spacing" textLength="432.3594" x="1769.59" y="803.7089">feedback_date: TIMESTAMP [DEFAULT CURRENT_TIMESTAMP]</text><ellipse cx="1760.59" cy="816.6591" fill="#FFFFFF" fill-opacity="0.00000" rx="3" ry="3" style="stroke:#038048;stroke-width:1;"/><text fill="#000000" font-family="sans-serif" font-size="14" lengthAdjust="spacing" textLength="404.1816" x="1769.59" y="820.0057">created_at: TIMESTAMP [DEFAULT CURRENT_TIMESTAMP]</text><line style="stroke:#181818;stroke-width:0.5;" x1="1750.59" x2="2206.9494" y1="827.3075" y2="827.3075"/><ellipse cx="1760.59" cy="840.9559" fill="#84BE84" rx="3" ry="3" style="stroke:#038048;stroke-width:1;"/><text fill="#000000" font-family="sans-serif" font-size="14" lengthAdjust="spacing" textLength="169.8184" x="1769.59" y="844.3026">user_id: INT [FK] (Users)</text><ellipse cx="1760.59" cy="857.2528" fill="#84BE84" rx="3" ry="3" style="stroke:#038048;stroke-width:1;"/><text fill="#000000" font-family="sans-serif" font-size="14" lengthAdjust="spacing" textLength="209.2617" x="1769.59" y="860.5995">service_id: INT [FK] (Services)</text><ellipse cx="1760.59" cy="873.5497" fill="#84BE84" rx="3" ry="3" style="stroke:#038048;stroke-width:1;"/><text fill="#000000" font-family="sans-serif" font-size="14" lengthAdjust="spacing" textLength="329.5742" x="1769.59" y="876.8964">rating: INT [CHECK (rating BETWEEN 1 AND 5)]</text></g><!--link Users to BeautyProfiles--><g id="link_Users_BeautyProfiles"><path codeLine="70" d="M780.88,202.15 C715.55,224.43 646.76,247.89 583.71,269.39 " fill="#FFFFFF" fill-opacity="0.00000" id="Users-BeautyProfiles" style="stroke:#181818;stroke-width:1;"/><text fill="#000000" font-family="sans-serif" font-size="13" lengthAdjust="spacing" textLength="8.271" x="752.6473" y="221.6265">1</text><text fill="#000000" font-family="sans-serif" font-size="13" lengthAdjust="spacing" textLength="24.8066" x="578.9895" y="258.8168">0..1</text></g><!--link Users to Bookings--><g id="link_Users_Bookings"><path codeLine="71" d="M1064.77,201.97 C1064.77,221.6 1064.77,242.14 1064.77,261.46 " fill="#FFFFFF" fill-opacity="0.00000" id="Users-Bookings" style="stroke:#181818;stroke-width:1;"/><text fill="#000000" font-family="sans-serif" font-size="13" lengthAdjust="spacing" textLength="8.271" x="1056.4862" y="221.7626">1</text><text fill="#000000" font-family="sans-serif" font-size="13" lengthAdjust="spacing" textLength="6.5" x="1058.5423" y="250.5081">*</text></g><!--link Users to Feedback--><g id="link_Users_Feedback"><path codeLine="72" d="M1405.98,132.73 C1702.36,160.08 2091.61,206 2139.77,261.67 C2254.75,394.58 2129.34,606.83 2044.11,721.82 " fill="#FFFFFF" fill-opacity="0.00000" id="Users-Feedback" style="stroke:#181818;stroke-width:1;"/><text fill="#000000" font-family="sans-serif" font-size="13" lengthAdjust="spacing" textLength="8.271" x="1414.074" y="130.2882">1</text><text fill="#000000" font-family="sans-serif" font-size="13" lengthAdjust="spacing" textLength="6.5" x="2043.6844" y="710.9806">*</text></g><!--link Bookings to Payments--><g id="link_Bookings_Payments"><path codeLine="73" d="M1064.77,440.42 C1064.77,462.72 1064.77,486.4 1064.77,507.8 " fill="#FFFFFF" fill-opacity="0.00000" id="Bookings-Payments" style="stroke:#181818;stroke-width:1;"/><text fill="#000000" font-family="sans-serif" font-size="13" lengthAdjust="spacing" textLength="8.271" x="1056.4621" y="460.2269">1</text><text fill="#000000" font-family="sans-serif" font-size="13" lengthAdjust="spacing" textLength="8.271" x="1056.4014" y="497.1738">1</text></g><!--link Bookings to Services--><g id="link_Bookings_Services"><path codeLine="74" d="M1343.26,440.5 C1417.35,464.08 1496.23,489.19 1566.37,511.52 " fill="#FFFFFF" fill-opacity="0.00000" id="Bookings-Services" style="stroke:#181818;stroke-width:1;"/><text fill="#000000" font-family="sans-serif" font-size="13" lengthAdjust="spacing" textLength="8.271" x="1356.2861" y="460.0095">1</text><text fill="#000000" font-family="sans-serif" font-size="13" lengthAdjust="spacing" textLength="8.271" x="1550.4902" y="505.82">1</text></g><!--link Categories to Services--><g id="link_Categories_Services"><path codeLine="75" d="M1781.77,407.69 C1781.77,435.4 1781.77,469.38 1781.77,499.83 " fill="#FFFFFF" fill-opacity="0.00000" id="Categories-Services" style="stroke:#181818;stroke-width:1;"/><text fill="#000000" font-family="sans-serif" font-size="13" lengthAdjust="spacing" textLength="8.271" x="1773.2991" y="427.606">1</text><text fill="#000000" font-family="sans-serif" font-size="13" lengthAdjust="spacing" textLength="6.5" x="1775.525" y="488.9986">*</text></g><!--link Services to Feedback--><g id="link_Services_Feedback"><path codeLine="76" d="M1853.73,662.47 C1870.98,681.75 1889.41,702.34 1906.68,721.62 " fill="#FFFFFF" fill-opacity="0.00000" id="Services-Feedback" style="stroke:#181818;stroke-width:1;"/><text fill="#000000" font-family="sans-serif" font-size="13" lengthAdjust="spacing" textLength="8.271" x="1851.5819" y="682.1817">1</text><text fill="#000000" font-family="sans-serif" font-size="13" lengthAdjust="spacing" textLength="6.5" x="1894.2485" y="711.0408">*</text></g><!--SRC=[pLRVZvf047xthvZuehJUHI_nnJSErvnHqNBGDZ76xC7gaUDNTg6DQVg_Tm0N4MdLQzFeY-xCnp3pVJEpsXuL0Yp1k80V3S3FHqZmj7QT0Onr4vQBIGTKovolnxfca1dHpTKU5r2V3U2pQcXFgj5-wFSLMEfp4tHhEfKOvbFNgu8iVVp98XseWgFNC2X5xFq9Ins7Co46O9Alc6NPbUKVxo8CHNHhrcxPdik2kDM1LiJ33JxbXW7rMZNfHiZ6zv0xvygoEQCnSzOqnWJ6C_9ighC5B8Taf5fJ4pJBC92eTU4gKekSgvw3kGxMOgYQf2xcpqR3plHxP3I9TmiiplNOGSWeDroYvR7ceyaAsbbJA7k_U7E3FQUIcNvNEURzbRhy72RYRCCu2snMAzsDyQfXq6t8tHAdTcxQNK9gWQsRbDyrzerHyCpuDzSk4I1omoNrI-WbYy9XmkPk5EDerZL6n37G08P46y_KQRlNxJpK1KaupIDacPrGUw9TrkW7bPLtQt0OnJ34KTaU-7h93Vza2AlKPn2fa59vOTeEo5Wgy0aJ8gOyNiTkgajQHIqYJeJSe14B78oPhb0xz2EF8JlPWU8aUnuUb0Cz1Vf6Mtf1TpxU1wKzcHikaUX4pKm2ARgKWFfX4iHdsrM-DrVg6cQErH69ZVgBL90DNhUvDBXeay2fA2EHgxzlz15ZpWkrtmeMDtl3_-lqTDY3xHwXFH5j0ktS1e_4_4A83ZrGzI7qbQBWqC-qhzinHG7Nw_4k7lD_NSrU4-xkeDczlyTVnpTv1VAXMQoNKu_Ker5i8Ed4BzdojKv9QwDqtPK25-xYAgXvwoy0]--></g></svg>